<?xml version="1.0" encoding="UTF-8"?><svg id="Layer_1" xmlns="http://www.w3.org/2000/svg" width="101.56" height="21.47" viewBox="0 0 101.56 21.47"><defs><style>.cls-1{fill:#fff;stroke-width:0px;}.cls-2{fill:none;stroke:#fff;stroke-miterlimit:10;stroke-width:.5px;}</style></defs><path class="cls-1" d="m9.2,15.04l-1.82-10.01h1.55l1.1,7.95h.06l1.11-7.95h1.55l-1.82,10.01h-1.73Z"/><path class="cls-1" d="m14.33,5.85c-.27,0-.49-.09-.66-.26s-.25-.41-.25-.73c0-.35.08-.59.25-.74s.39-.22.67-.22.51.08.68.23.24.4.24.72c0,.3-.08.54-.25.72s-.39.26-.68.26Zm-.73,1.12h1.48v8.07h-1.48V6.97Z"/><path class="cls-1" d="m16.59,6.97h1.08l.13.82c.16-.3.35-.53.56-.69s.43-.23.66-.23c.83,0,1.25.52,1.25,1.57,0,.13-.02.31-.06.52s-.09.41-.14.57h-1.03v-.63c0-.32-.05-.54-.15-.66s-.22-.17-.36-.17c-.18,0-.34.14-.46.43v6.52h-1.48V6.97Z"/><path class="cls-1" d="m21.05,4.38h1.48v6.13h.05l1.62-3.54h1.42l-1.73,3.62,1.9,4.45h-1.5l-1.71-4h-.05v4h-1.48V4.38Z"/><path class="cls-1" d="m26.15,13.35c0-.18.02-.35.05-.51s.07-.29.1-.39h1.04c0,.59.07,1,.22,1.23s.36.35.63.35c.2,0,.35-.06.46-.18s.16-.26.16-.42-.05-.34-.14-.5-.22-.34-.38-.53l-1.04-1.28c-.28-.36-.53-.73-.75-1.12s-.33-.82-.33-1.29c0-.42.09-.76.28-1.03s.43-.47.73-.61.63-.2.98-.2c.58,0,1.05.14,1.39.42s.52.7.52,1.26c0,.18-.02.36-.05.54s-.07.33-.1.45h-1.03c0-.53-.07-.93-.19-1.18s-.31-.39-.58-.39c-.23,0-.38.07-.47.21s-.13.3-.13.47c0,.19.05.36.14.51s.21.32.36.51l1.17,1.42c.11.14.24.32.39.54s.28.46.39.73.17.57.17.88c0,.57-.18,1.02-.53,1.37s-.86.52-1.52.52c-.36,0-.69-.06-.98-.17s-.53-.3-.71-.56-.26-.61-.26-1.05Z"/><path class="cls-1" d="m33.29,15.12c-.26,0-.52-.04-.78-.11s-.5-.23-.72-.47-.4-.59-.53-1.06-.2-1.11-.2-1.91v-1.27c0-.79.07-1.41.21-1.87s.32-.8.54-1.03.46-.37.73-.44.52-.1.77-.1.49.03.75.1.5.21.71.43.4.56.53,1.03.21,1.09.21,1.88v1.27c0,.79-.07,1.41-.21,1.88s-.32.83-.54,1.07-.46.4-.72.48-.5.12-.74.12Zm.01-1.1c.27,0,.45-.15.55-.44s.16-.82.16-1.57v-2.01c0-.76-.05-1.29-.16-1.58s-.29-.45-.55-.45-.47.15-.59.45-.17.82-.17,1.58v2.01c0,.75.06,1.28.17,1.57s.31.44.59.44Z"/><path class="cls-1" d="m36.82,6.97h1.14l.14.86h0c.23-.37.49-.62.79-.75s.59-.2.89-.2c.64,0,1.08.3,1.3.91.23-.35.49-.59.78-.72s.58-.2.87-.2c.46,0,.83.17,1.08.5s.39.83.39,1.48v6.18h-1.48v-6.01c0-.36-.05-.6-.16-.74s-.28-.21-.52-.21c-.13,0-.27.05-.41.15s-.26.24-.38.41c0,.04,0,.07,0,.11v6.29h-1.48v-6.01c0-.36-.05-.6-.16-.74s-.28-.21-.52-.21c-.13,0-.27.05-.4.15s-.26.23-.37.4v6.4h-1.48V6.97Z"/><path class="cls-1" d="m45.68,4.38h1.48v1.9l-.08,1.38c.22-.3.46-.51.73-.62s.54-.17.81-.17c.47,0,.83.17,1.09.5s.39.83.39,1.48v6.18h-1.48v-6.01c0-.36-.05-.6-.16-.74s-.27-.21-.48-.21c-.15,0-.29.05-.44.15s-.27.24-.38.41v6.39h-1.48V4.38Z"/><path class="cls-1" d="m51.42,11.73v-1.52c0-.62.05-1.13.16-1.54s.25-.73.42-.97.37-.42.57-.54.42-.19.62-.23.4-.06.57-.06c.36,0,.68.08.98.23s.54.41.72.77.27.87.27,1.52c0,.32-.02.66-.05.99s-.08.64-.14.89h-2.64v.82c0,.7.06,1.2.18,1.49s.35.43.68.43c.18,0,.35-.08.5-.24s.22-.45.22-.88v-.35h1.22v.37c0,.77-.18,1.32-.55,1.67s-.89.52-1.58.52-1.23-.27-1.6-.8-.56-1.4-.56-2.6Zm2.94-1.45c0-.09.01-.22.02-.39s0-.31,0-.42c0-.54-.06-.92-.17-1.15s-.29-.35-.54-.35c-.26,0-.46.13-.58.4s-.19.74-.19,1.44v.47h1.45Z"/><path class="cls-1" d="m56.77,12.22v-2.56c0-.54.04-.99.13-1.34s.21-.62.35-.82.29-.34.46-.43.32-.14.47-.16.27-.03.36-.03c.29,0,.55.07.76.21s.38.3.49.46h0s-.05-1.03-.05-1.03v-2.15h1.48v10.66h-1.15l-.13-.75c-.13.21-.31.41-.53.58s-.53.26-.9.26c-.14,0-.3-.03-.5-.08s-.38-.17-.57-.35-.35-.47-.47-.87-.19-.93-.19-1.61Zm2.98,1.12v-4.67c-.07-.16-.17-.3-.3-.42s-.27-.18-.45-.18c-.14,0-.27.04-.38.11s-.2.22-.26.43-.1.51-.1.92v2.91c0,.4.03.7.1.92s.15.36.27.44.24.12.39.12c.2,0,.35-.06.47-.18s.21-.25.27-.4Z"/><path class="cls-1" d="m62.35,13.35c0-.18.02-.35.05-.51s.07-.29.1-.39h1.04c0,.59.07,1,.22,1.23s.36.35.63.35c.2,0,.35-.06.46-.18s.16-.26.16-.42-.05-.34-.14-.5-.22-.34-.38-.53l-1.04-1.28c-.28-.36-.53-.73-.75-1.12s-.33-.82-.33-1.29c0-.42.09-.76.28-1.03s.43-.47.73-.61.63-.2.98-.2c.58,0,1.05.14,1.39.42s.52.7.52,1.26c0,.18-.02.36-.05.54s-.07.33-.1.45h-1.03c0-.53-.07-.93-.19-1.18s-.31-.39-.58-.39c-.23,0-.38.07-.47.21s-.13.3-.13.47c0,.19.05.36.14.51s.21.32.36.51l1.17,1.42c.11.14.24.32.39.54s.28.46.39.73.17.57.17.88c0,.57-.18,1.02-.53,1.37s-.86.52-1.52.52c-.36,0-.69-.06-.98-.17s-.53-.3-.71-.56-.26-.61-.26-1.05Z"/><path class="cls-1" d="m68.98,10.55c.15-.07.31-.15.48-.23s.33-.14.47-.19v-.98c0-.2,0-.39-.03-.57s-.07-.32-.16-.43-.24-.17-.45-.17-.4.09-.57.26-.25.49-.25.96v.32h-1.13c-.07-.3-.11-.57-.11-.8,0-.6.2-1.06.59-1.37s.9-.47,1.51-.47c.54,0,.95.08,1.25.23s.51.38.63.68.18.69.18,1.15v6.1h-1.14l-.11-.69c-.16.23-.36.41-.62.56s-.56.22-.9.22-.64-.09-.87-.27-.4-.42-.51-.71-.17-.62-.17-.96c0-.66.16-1.19.47-1.58s.78-.74,1.39-1.05Zm.33,3.45c.12,0,.24-.03.35-.1s.2-.14.28-.24v-2.54c-.07.03-.15.07-.24.11s-.19.1-.3.17c-.21.13-.4.32-.58.58s-.27.58-.27.98c0,.31.06.56.18.75s.31.29.58.29Z"/><path class="cls-1" d="m73.02,8.09h-.67v-1.12h.67v-.58c0-.59.08-1.03.24-1.33s.37-.51.64-.62.57-.16.89-.16c.14,0,.31.02.5.05s.35.08.48.15v1.04c-.16-.04-.35-.06-.55-.06-.19,0-.36.07-.51.2s-.22.38-.22.73v.58h1.18v1.12h-1.18v6.94h-1.48v-6.94Z"/><path class="cls-1" d="m76.63,8.09h-.69v-1.12h.81l.3-2.09h1.05v2.09h1.35v1.12h-1.35v4.95c0,.35.06.57.19.67s.28.14.45.14c.27,0,.51-.06.7-.18v.94c-.17.21-.36.35-.59.42s-.44.11-.64.11c-.27,0-.53-.05-.78-.16s-.44-.31-.59-.62-.23-.75-.23-1.33v-4.93Z"/><path class="cls-1" d="m81.81,10.55c.15-.07.31-.15.48-.23s.33-.14.47-.19v-.98c0-.2,0-.39-.03-.57s-.07-.32-.16-.43-.24-.17-.45-.17-.4.09-.57.26-.25.49-.25.96v.32h-1.13c-.07-.3-.11-.57-.11-.8,0-.6.2-1.06.59-1.37s.9-.47,1.51-.47c.54,0,.95.08,1.25.23s.51.38.63.68.18.69.18,1.15v6.1h-1.14l-.11-.69c-.16.23-.36.41-.62.56s-.56.22-.9.22-.64-.09-.87-.27-.4-.42-.51-.71-.17-.62-.17-.96c0-.66.16-1.19.47-1.58s.78-.74,1.39-1.05Zm.33,3.45c.12,0,.24-.03.35-.1s.2-.14.28-.24v-2.54c-.07.03-.15.07-.24.11s-.19.1-.3.17c-.21.13-.4.32-.58.58s-.27.58-.27.98c0,.31.06.56.18.75s.31.29.58.29Z"/><path class="cls-1" d="m85.74,4.38h1.48v10.66h-1.48V4.38Z"/><path class="cls-1" d="m88.54,11.73v-1.52c0-.62.05-1.13.16-1.54s.25-.73.42-.97.37-.42.57-.54.42-.19.62-.23.4-.06.57-.06c.36,0,.68.08.98.23s.54.41.72.77.27.87.27,1.52c0,.32-.02.66-.05.99s-.08.64-.14.89h-2.64v.82c0,.7.06,1.2.18,1.49s.35.43.68.43c.18,0,.35-.08.5-.24s.22-.45.22-.88v-.35h1.22v.37c0,.77-.18,1.32-.55,1.67s-.89.52-1.58.52-1.23-.27-1.6-.8-.56-1.4-.56-2.6Zm2.94-1.45c0-.09.01-.22.02-.39s0-.31,0-.42c0-.54-.06-.92-.17-1.15s-.29-.35-.54-.35c-.26,0-.46.13-.58.4s-.19.74-.19,1.44v.47h1.45Z"/><path class="cls-2" d="m94.51,18.99h-35.35l-29.77,1.03H5.2c-3.72,0-2.79-.28-2.79-1.27l.93-4.89-.93-7.92.93-4.39c0-.98,13.1-1.03,14.89-1.03l31.63,1.03,20.47-1.03h24.19c1.78,0,2.79-.74,2.79.24l-.93,7.97.93,10.02c0,.98-1.01.24-2.79.24Z"/></svg>