<?xml version="1.0" encoding="UTF-8"?><svg id="Layer_1" xmlns="http://www.w3.org/2000/svg" width="74.56" height="21.47" viewBox="0 0 74.56 21.47"><defs><style>.cls-1{fill:#210d9e;stroke-width:0px;}.cls-2{fill:none;stroke:#392eae;stroke-miterlimit:10;stroke-width:.5px;}</style></defs><path class="cls-1" d="m9.58,5.03h3.83v1.24h-2.31v2.95h1.81v1.2h-1.81v4.62h-1.52V5.03Z"/><path class="cls-1" d="m14.97,5.85c-.27,0-.49-.09-.66-.26s-.25-.41-.25-.73c0-.35.08-.59.25-.74s.39-.22.67-.22.51.08.68.23.24.4.24.72c0,.3-.08.54-.25.72s-.39.26-.68.26Zm-.73,1.12h1.48v8.07h-1.48V6.97Z"/><path class="cls-1" d="m17.23,6.97h1.08l.13.82c.16-.3.35-.53.56-.69s.43-.23.66-.23c.83,0,1.25.52,1.25,1.57,0,.13-.02.31-.06.52s-.09.41-.14.57h-1.03v-.63c0-.32-.05-.54-.15-.66s-.22-.17-.36-.17c-.18,0-.34.14-.46.43v6.52h-1.48V6.97Z"/><path class="cls-1" d="m21.7,6.97h1.14l.14.86h0c.23-.37.49-.62.79-.75s.59-.2.89-.2c.64,0,1.08.3,1.3.91.23-.35.49-.59.78-.72s.58-.2.87-.2c.46,0,.83.17,1.08.5s.39.83.39,1.48v6.18h-1.48v-6.01c0-.36-.05-.6-.16-.74s-.28-.21-.52-.21c-.13,0-.27.05-.41.15s-.26.24-.38.41c0,.04,0,.07,0,.11v6.29h-1.48v-6.01c0-.36-.05-.6-.16-.74s-.28-.21-.52-.21c-.13,0-.27.05-.4.15s-.26.23-.37.4v6.4h-1.48V6.97Z"/><path class="cls-1" d="m31.99,10.55c.15-.07.31-.15.48-.23s.33-.14.47-.19v-.98c0-.2,0-.39-.03-.57s-.07-.32-.16-.43-.24-.17-.45-.17-.4.09-.57.26-.25.49-.25.96v.32h-1.13c-.07-.3-.11-.57-.11-.8,0-.6.2-1.06.59-1.37s.9-.47,1.51-.47c.54,0,.95.08,1.25.23s.51.38.63.68.18.69.18,1.15v6.1h-1.14l-.11-.69c-.16.23-.36.41-.62.56s-.56.22-.9.22-.64-.09-.87-.27-.4-.42-.51-.71-.17-.62-.17-.96c0-.66.16-1.19.47-1.58s.78-.74,1.39-1.05Zm.33,3.45c.12,0,.24-.03.35-.1s.2-.14.28-.24v-2.54c-.07.03-.15.07-.24.11s-.19.1-.3.17c-.21.13-.4.32-.58.58s-.27.58-.27.98c0,.31.06.56.18.75s.31.29.58.29Z"/><path class="cls-1" d="m37.35,10.55c.15-.07.31-.15.48-.23s.33-.14.47-.19v-.98c0-.2,0-.39-.03-.57s-.07-.32-.16-.43-.24-.17-.45-.17-.4.09-.57.26-.25.49-.25.96v.32h-1.13c-.07-.3-.11-.57-.11-.8,0-.6.2-1.06.59-1.37s.9-.47,1.51-.47c.54,0,.95.08,1.25.23s.51.38.63.68.18.69.18,1.15v6.1h-1.14l-.11-.69c-.16.23-.36.41-.62.56s-.56.22-.9.22-.64-.09-.87-.27-.4-.42-.51-.71-.17-.62-.17-.96c0-.66.16-1.19.47-1.58s.78-.74,1.39-1.05Zm.33,3.45c.12,0,.24-.03.35-.1s.2-.14.28-.24v-2.54c-.07.03-.15.07-.24.11s-.19.1-.3.17c-.21.13-.4.32-.58.58s-.27.58-.27.98c0,.31.06.56.18.75s.31.29.58.29Z"/><path class="cls-1" d="m41.39,8.09h-.67v-1.12h.67v-.58c0-.59.08-1.03.24-1.33s.37-.51.64-.62.57-.16.89-.16c.14,0,.31.02.5.05s.35.08.48.15v1.04c-.16-.04-.35-.06-.55-.06-.19,0-.36.07-.51.2s-.22.38-.22.73v.58h1.18v1.12h-1.18v6.94h-1.48v-6.94Z"/><path class="cls-1" d="m45,8.09h-.69v-1.12h.81l.3-2.09h1.05v2.09h1.35v1.12h-1.35v4.95c0,.35.06.57.19.67s.28.14.45.14c.27,0,.51-.06.7-.18v.94c-.17.21-.36.35-.59.42s-.44.11-.64.11c-.27,0-.53-.05-.78-.16s-.44-.31-.59-.62-.23-.75-.23-1.33v-4.93Z"/><path class="cls-1" d="m50.18,10.55c.15-.07.31-.15.48-.23s.33-.14.47-.19v-.98c0-.2,0-.39-.03-.57s-.07-.32-.16-.43-.24-.17-.45-.17-.4.09-.57.26-.25.49-.25.96v.32h-1.13c-.07-.3-.11-.57-.11-.8,0-.6.2-1.06.59-1.37s.9-.47,1.51-.47c.54,0,.95.08,1.25.23s.51.38.63.68.18.69.18,1.15v6.1h-1.14l-.11-.69c-.16.23-.36.41-.62.56s-.56.22-.9.22-.64-.09-.87-.27-.4-.42-.51-.71-.17-.62-.17-.96c0-.66.16-1.19.47-1.58s.78-.74,1.39-1.05Zm.33,3.45c.12,0,.24-.03.35-.1s.2-.14.28-.24v-2.54c-.07.03-.15.07-.24.11s-.19.1-.3.17c-.21.13-.4.32-.58.58s-.27.58-.27.98c0,.31.06.56.18.75s.31.29.58.29Z"/><path class="cls-1" d="m54.11,4.38h1.48v10.66h-1.48V4.38Z"/><path class="cls-1" d="m56.91,11.73v-1.52c0-.62.05-1.13.16-1.54s.25-.73.42-.97.37-.42.57-.54.42-.19.62-.23.4-.06.57-.06c.36,0,.68.08.98.23s.54.41.72.77.27.87.27,1.52c0,.32-.02.66-.05.99s-.08.64-.14.89h-2.64v.82c0,.7.06,1.2.18,1.49s.35.43.68.43c.18,0,.35-.08.5-.24s.22-.45.22-.88v-.35h1.22v.37c0,.77-.18,1.32-.55,1.67s-.89.52-1.58.52-1.23-.27-1.6-.8-.56-1.4-.56-2.6Zm2.94-1.45c0-.09.01-.22.02-.39s0-.31,0-.42c0-.54-.06-.92-.17-1.15s-.29-.35-.54-.35c-.26,0-.46.13-.58.4s-.19.74-.19,1.44v.47h1.45Z"/><path class="cls-2" d="m72.13,18.99h-27.56l-23.21,1.03H2.51c-2.9,0-2.18-.28-2.18-1.27l.73-4.89L.33,5.93,1.06,1.54C1.06.56,11.27.52,12.66.52l24.66,1.03,15.96-1.03h18.86c1.39,0,2.18-.74,2.18.24l-.73,7.97.73,10.02c0,.98-.79.24-2.18.24Z"/></svg>