<?xml version="1.0" encoding="UTF-8"?><svg id="Layer_1" xmlns="http://www.w3.org/2000/svg" width="51.56" height="19.76" viewBox="0 0 51.56 19.76"><defs><style>.cls-1{fill:#210d9e;stroke-width:0px;}.cls-2{fill:none;stroke:#210d9e;stroke-miterlimit:10;stroke-width:.5px;}</style></defs><path class="cls-1" d="m11.68,3.85h1.88l1,4.05c.11.43.19.83.25,1.23s.11.76.16,1.1h.05c.05-.34.11-.71.17-1.1s.14-.8.24-1.23l.99-4.05h1.88v10.01h-1.36v-3.31c0-.68,0-1.32.03-1.92s.04-1.12.06-1.57.05-.79.07-1.03h-.11l-1.51,6.53h-.96l-1.52-6.53h-.11c.02.23.05.58.07,1.03s.04.97.06,1.57.03,1.24.03,1.92v3.31h-1.36V3.85Z"/><path class="cls-1" d="m19.64,10.55v-1.52c0-.62.05-1.13.16-1.54s.25-.73.42-.97.37-.42.57-.54.42-.19.62-.23.4-.06.57-.06c.36,0,.68.08.98.23s.54.41.72.77.27.87.27,1.52c0,.32-.02.66-.05.99s-.08.64-.14.89h-2.64v.82c0,.7.06,1.2.18,1.49s.35.43.68.43c.18,0,.35-.08.5-.24s.22-.45.22-.88v-.35h1.22v.37c0,.77-.18,1.32-.55,1.67s-.89.52-1.58.52-1.23-.27-1.6-.8-.56-1.4-.56-2.6Zm2.94-1.45c0-.09.01-.22.02-.39s0-.31,0-.42c0-.54-.06-.92-.17-1.15s-.29-.35-.54-.35c-.26,0-.46.13-.58.4s-.19.74-.19,1.44v.47h1.45Z"/><path class="cls-1" d="m25.2,5.79h1.13l.15.86h0c.23-.37.49-.62.79-.75s.59-.2.88-.2c.47,0,.83.17,1.09.5s.39.83.39,1.48v6.18h-1.48v-6.01c0-.36-.05-.6-.16-.74s-.27-.21-.48-.21c-.15,0-.29.05-.43.15s-.27.23-.38.4v6.4h-1.48V5.79Z"/><path class="cls-1" d="m31.02,5.79h1.48v5.94c0,.36.05.6.16.74s.27.21.48.21c.31,0,.58-.16.81-.47v-6.41h1.48v8.07h-1.13l-.15-.86h0c-.23.37-.49.62-.78.75s-.58.2-.88.2c-.47,0-.83-.17-1.09-.5s-.39-.83-.39-1.49v-6.18Z"/><path class="cls-2" d="m49.81,18.51h-19l-16,1H1.81c-2,0-1.5-.28-1.5-1.24l.5-4.76L.31,5.79.81,1.51C.81.55,7.85.51,8.81.51l17,1,11-1h13c.96,0,1.5-.72,1.5.24l-.5,7.76.5,9.76c0,.96-.54.24-1.5.24Z"/></svg>