<?xml version="1.0" encoding="UTF-8"?><svg id="Layer_1" xmlns="http://www.w3.org/2000/svg" width="70.56" height="20.26" viewBox="0 0 70.56 20.26"><defs><style>.cls-1{fill:#210d9e;stroke-width:0px;}.cls-2{fill:none;stroke:#210d9e;stroke-miterlimit:10;stroke-width:.5px;}</style></defs><path class="cls-2" d="m68.25,18.99h-26.07l-21.95,1.03H2.38c-2.74,0-2.06-.28-2.06-1.27l.69-4.89L.33,5.93,1.01,1.54C1.01.56,10.67.52,11.99.52l23.33,1.03,15.09-1.03h17.84c1.31,0,2.06-.74,2.06.24l-.69,7.97.69,10.02c0,.98-.74.24-2.06.24Z"/><path class="cls-1" d="m9.09,5.56h1.88l1,4.05c.11.43.19.83.25,1.23s.11.76.16,1.1h.05c.05-.34.11-.71.17-1.1s.14-.8.24-1.23l.99-4.05h1.88v10.01h-1.36v-3.31c0-.68,0-1.32.03-1.92s.04-1.12.06-1.57.05-.79.07-1.03h-.11l-1.51,6.53h-.96l-1.52-6.53h-.11c.02.23.05.58.07,1.03s.04.97.06,1.57.03,1.24.03,1.92v3.31h-1.36V5.56Z"/><path class="cls-1" d="m17.06,12.27v-1.52c0-.62.05-1.13.16-1.54s.25-.73.42-.97.37-.42.57-.54.42-.19.62-.23.4-.06.57-.06c.36,0,.68.08.98.23s.54.41.72.77.27.87.27,1.52c0,.32-.02.66-.05.99s-.08.64-.14.89h-2.64v.82c0,.7.06,1.2.18,1.49s.35.43.68.43c.18,0,.35-.08.5-.24s.22-.45.22-.88v-.35h1.22v.37c0,.77-.18,1.32-.55,1.67s-.89.52-1.58.52-1.23-.27-1.6-.8-.56-1.4-.56-2.6Zm2.94-1.45c0-.09.01-.22.02-.39s0-.31,0-.42c0-.54-.06-.92-.17-1.15s-.29-.35-.54-.35c-.26,0-.46.13-.58.4s-.19.74-.19,1.44v.47h1.45Z"/><path class="cls-1" d="m22.61,7.5h1.08l.13.82c.16-.3.35-.53.56-.69s.43-.23.66-.23c.83,0,1.25.52,1.25,1.57,0,.13-.02.31-.06.52s-.09.41-.14.57h-1.03v-.63c0-.32-.05-.54-.15-.66s-.22-.17-.36-.17c-.18,0-.34.14-.46.43v6.52h-1.48V7.5Z"/><path class="cls-1" d="m26.88,12.27v-1.52c0-.62.05-1.13.16-1.54s.25-.73.42-.97.37-.42.57-.54.42-.19.62-.23.4-.06.57-.06c.36,0,.68.08.98.23s.54.41.72.77.27.87.27,1.52c0,.32-.02.66-.05.99s-.08.64-.14.89h-2.64v.82c0,.7.06,1.2.18,1.49s.35.43.68.43c.18,0,.35-.08.5-.24s.22-.45.22-.88v-.35h1.22v.37c0,.77-.18,1.32-.55,1.67s-.89.52-1.58.52-1.23-.27-1.6-.8-.56-1.4-.56-2.6Zm2.94-1.45c0-.09.01-.22.02-.39s0-.31,0-.42c0-.54-.06-.92-.17-1.15s-.29-.35-.54-.35c-.26,0-.46.13-.58.4s-.19.74-.19,1.44v.47h1.45Z"/><path class="cls-1" d="m37.06,15.66c-.26,0-.52-.04-.78-.11s-.5-.23-.72-.47-.4-.59-.53-1.06-.2-1.11-.2-1.91v-1.27c0-.79.07-1.41.21-1.87s.32-.8.54-1.03.46-.37.73-.44.52-.1.77-.1.49.03.75.1.5.21.71.43.4.56.53,1.03.21,1.09.21,1.88v1.27c0,.79-.07,1.41-.21,1.88s-.32.83-.54,1.07-.46.4-.72.48-.5.12-.74.12Zm.01-1.1c.27,0,.45-.15.55-.44s.16-.82.16-1.57v-2.01c0-.76-.05-1.29-.16-1.58s-.29-.45-.55-.45-.47.15-.59.45-.17.82-.17,1.58v2.01c0,.75.06,1.28.17,1.57s.31.44.59.44Z"/><path class="cls-1" d="m40.58,7.5h1.14l.14.86h0c.23-.37.49-.62.79-.75s.59-.2.89-.2c.64,0,1.08.3,1.3.91.23-.35.49-.59.78-.72s.58-.2.87-.2c.46,0,.83.17,1.08.5s.39.83.39,1.48v6.18h-1.48v-6.01c0-.36-.05-.6-.16-.74s-.28-.21-.52-.21c-.13,0-.27.05-.41.15s-.26.24-.38.41c0,.04,0,.07,0,.11v6.29h-1.48v-6.01c0-.36-.05-.6-.16-.74s-.28-.21-.52-.21c-.13,0-.27.05-.4.15s-.26.23-.37.4v6.4h-1.48V7.5Z"/><path class="cls-1" d="m54.08,15.66c-.26,0-.52-.04-.78-.11s-.5-.23-.72-.47-.4-.59-.53-1.06-.2-1.11-.2-1.91v-1.27c0-.79.07-1.41.21-1.87s.32-.8.54-1.03.46-.37.73-.44.52-.1.77-.1.49.03.75.1.5.21.71.43.4.56.53,1.03.21,1.09.21,1.88v1.27c0,.79-.07,1.41-.21,1.88s-.32.83-.54,1.07-.46.4-.72.48-.5.12-.74.12Zm.01-1.1c.27,0,.45-.15.55-.44s.16-.82.16-1.57v-2.01c0-.76-.05-1.29-.16-1.58s-.29-.45-.55-.45-.47.15-.59.45-.17.82-.17,1.58v2.01c0,.75.06,1.28.17,1.57s.31.44.59.44Z"/><path class="cls-1" d="m57.21,13.88c0-.18.02-.35.05-.51s.07-.29.1-.39h1.04c0,.59.07,1,.22,1.23s.36.35.63.35c.2,0,.35-.06.46-.18s.16-.26.16-.42-.05-.34-.14-.5-.22-.34-.38-.53l-1.04-1.28c-.28-.36-.53-.73-.75-1.12s-.33-.82-.33-1.29c0-.42.09-.76.28-1.03s.43-.47.73-.61.63-.2.98-.2c.58,0,1.05.14,1.39.42s.52.7.52,1.26c0,.18-.02.36-.05.54s-.07.33-.1.45h-1.03c0-.53-.07-.93-.19-1.18s-.31-.39-.58-.39c-.23,0-.38.07-.47.21s-.13.3-.13.47c0,.19.05.36.14.51s.21.32.36.51l1.17,1.42c.11.14.24.32.39.54s.28.46.39.73.17.57.17.88c0,.57-.18,1.02-.53,1.37s-.86.52-1.52.52c-.36,0-.69-.06-.98-.17s-.53-.3-.71-.56-.26-.61-.26-1.05Z"/></svg>