<?xml version="1.0" encoding="UTF-8"?><svg id="Layer_1" xmlns="http://www.w3.org/2000/svg" width="46.56" height="20.26" viewBox="0 0 46.56 20.26"><defs><style>.cls-1{fill:#210d9e;stroke-width:0px;}.cls-2{fill:none;stroke:#210d9e;stroke-miterlimit:10;stroke-width:.5px;}</style></defs><path class="cls-1" d="m8.43,5.45h-1.61v-1.2h4.73v1.2h-1.61v8.81h-1.52V5.45Z"/><path class="cls-1" d="m13.05,5.08c-.27,0-.49-.09-.66-.26s-.25-.41-.25-.73c0-.35.08-.59.25-.74s.39-.22.67-.22.51.08.68.23.24.4.24.72c0,.3-.08.54-.25.72s-.39.26-.68.26Zm-.73,1.12h1.48v8.07h-1.48V6.2Z"/><path class="cls-1" d="m15.31,3.61h1.48v10.66h-1.48V3.61Z"/><path class="cls-1" d="m18.31,3.61h1.48v2.15l-.05,1.07h0c.14-.18.31-.35.53-.5s.49-.22.81-.22c.12,0,.28.02.47.07s.37.16.56.35.34.47.47.86.19.93.19,1.62v2.44c0,.68-.06,1.22-.19,1.61s-.29.68-.47.87-.38.3-.57.35-.36.08-.5.08c-.38,0-.68-.09-.91-.26s-.4-.37-.54-.58l-.12.75h-1.16V3.61Zm1.48,8.92c.07.15.16.28.27.4s.27.18.47.18c.14,0,.27-.04.38-.12s.2-.22.26-.44.1-.52.1-.92v-2.86c0-.4-.03-.71-.09-.92s-.15-.35-.26-.43-.24-.12-.38-.12c-.18,0-.33.05-.45.16s-.22.24-.29.38v4.67Z"/><path class="cls-1" d="m25.55,9.78c.15-.07.31-.15.48-.23s.33-.14.47-.19v-.98c0-.2,0-.39-.03-.57s-.07-.32-.16-.43-.24-.17-.45-.17-.4.09-.57.26-.25.49-.25.96v.32h-1.13c-.07-.3-.11-.57-.11-.8,0-.6.2-1.06.59-1.37s.9-.47,1.51-.47c.54,0,.95.08,1.25.23s.51.38.63.68.18.69.18,1.15v6.1h-1.14l-.11-.69c-.16.23-.36.41-.62.56s-.56.22-.9.22-.64-.09-.87-.27-.4-.42-.51-.71-.17-.62-.17-.96c0-.66.16-1.19.47-1.58s.78-.74,1.39-1.05Zm.33,3.45c.12,0,.24-.03.35-.1s.2-.14.28-.24v-2.54c-.07.03-.15.07-.24.11s-.19.1-.3.17c-.21.13-.4.32-.58.58s-.27.58-.27.98c0,.31.06.56.18.75s.31.29.58.29Z"/><path class="cls-1" d="m30.68,14.82c0,.34.07.59.2.74s.33.22.59.22c.15,0,.29-.03.41-.1s.23-.18.31-.35.12-.42.12-.75v-1.27c-.13.17-.3.31-.51.44s-.47.19-.78.19c-.14,0-.3-.03-.5-.08s-.38-.17-.57-.35-.35-.48-.47-.87-.19-.93-.19-1.62v-2.12c0-.66.06-1.17.19-1.55s.29-.65.47-.83.38-.29.59-.33.37-.07.52-.07c.39,0,.7.09.91.28s.37.39.48.6l.13-.8h1.15v7.75c0,.9-.18,1.61-.53,2.14s-.93.79-1.72.79c-.36,0-.68-.04-.97-.13s-.53-.25-.7-.48-.26-.56-.26-.98c0-.13.03-.29.08-.47h1.05Zm.84-2.1c.2,0,.35-.06.47-.18s.21-.26.27-.4v-4.23c-.07-.16-.17-.3-.3-.42s-.27-.18-.45-.18c-.14,0-.27.04-.38.11s-.2.22-.26.43-.1.51-.1.92v2.47c0,.4.03.7.1.92s.15.36.27.44.24.12.39.12Z"/><path class="cls-1" d="m35.05,10.96v-1.52c0-.62.05-1.13.16-1.54s.25-.73.42-.97.37-.42.57-.54.42-.19.62-.23.4-.06.57-.06c.36,0,.68.08.98.23s.54.41.72.77.27.87.27,1.52c0,.32-.02.66-.05.99s-.08.64-.14.89h-2.64v.82c0,.7.06,1.2.18,1.49s.35.43.68.43c.18,0,.35-.08.5-.24s.22-.45.22-.88v-.35h1.22v.37c0,.77-.18,1.32-.55,1.67s-.89.52-1.58.52-1.23-.27-1.6-.8-.56-1.4-.56-2.6Zm2.94-1.45c0-.09.01-.22.02-.39s0-.31,0-.42c0-.54-.06-.92-.17-1.15s-.29-.35-.54-.35c-.26,0-.46.13-.58.4s-.19.74-.19,1.44v.47h1.45Z"/><path class="cls-2" d="m44.95,18.99h-17.14l-14.43,1.03H1.65c-1.8,0-1.35-.28-1.35-1.27l.45-4.89-.45-7.92L.75,1.54C.75.56,7.1.52,7.97.52l15.34,1.03,9.92-1.03h11.73c.86,0,1.35-.74,1.35.24l-.45,7.97.45,10.02c0,.98-.49.24-1.35.24Z"/></svg>